<svg xmlns="http://www.w3.org/2000/svg" xmlns:svg="http://www.w3.org/2000/svg" xmlns:xlink="http://www.w3.org/1999/xlink" version="1.0" height="488.9999932050705pt" width="530.5pt" viewBox="379 553 538.5 494.9999932050705" ><defs><style type="text/css">
            @font-face {
                font-family: 'noto_regular';
                src: url('https://app.creately.com/diagram/assets/fonts/noto/noto-regular.woff') format('woff'),
                     url('https://app.creately.com/diagram/assets/fonts/noto/noto-regular.woff2') format('woff2');
                font-weight: normal;
                font-style: normal;
            }
        p {
            margin: 0;
        }
        </style></defs><defs><style>
            span{ display: inline-block; }
        </style></defs><g id="90w37x3a2u"><g transform="translate(500 580)"><rect x="0" y="0" width="301" height="464.9999932050705" fill="rgba(255,255,255,1)" stroke="#000000" stroke-width="0.5" stroke-linecap="round" stroke-linejoin="round"/></g><g transform="translate(628, 590) rotate(0, 22.5, 0)" width="45" height="18"><text text-decoration="none" x="0.5" fill="rgb(84, 84, 84)" font-size="10pt" font-family="noto_regular"  y="17">System</text><text text-decoration="none" x="44.5" fill="#4b4b4b" font-size="10pt" font-family="noto_regular"  y="17"></text></g><g transform="translate(544.5, 556) rotate(0, 106, 19)" width="212" height="19"><text text-decoration="none" x="14" fill="rgb(0, 0, 0)" font-weight="bold" font-size="10pt" font-family="Arial"  y="17">Coffee&#160;</text><text text-decoration="none" x="59" fill="rgb(0, 0, 0)" font-weight="bold" font-size="10pt" font-family="Arial"  y="17">shop&#160;</text><text text-decoration="none" x="93" fill="rgb(0, 0, 0)" font-weight="bold" font-size="10pt" font-family="Arial"  y="17">ordering&#160;</text><text text-decoration="none" x="152" fill="rgb(0, 0, 0)" font-weight="bold" font-size="10pt" font-family="Arial"  y="17">system</text><text text-decoration="none" x="198" fill="#4b4b4b" font-size="10pt" font-family="noto_regular"  y="17"></text></g></g><g id="65ld286y8x"><g transform="translate(560 590)"><ellipse cx="65.50000423192978" cy="29.49999937415123" rx="65.50000423192978" ry="29.49999937415123" fill="rgba(255,255,255,1)" stroke="#000000" stroke-width="2" stroke-linecap="round" stroke-linejoin="round"/></g><g transform="translate(576.0000042319298, 609.9999993741512) rotate(0, 49.5, 9.5)" width="99" height="19"><text text-decoration="none" x="5.5" fill="rgb(0, 0, 0)" font-weight="bold" font-size="12pt" font-family="Arial"  y="17">placeOrder</text><text text-decoration="none" x="93.5" fill="#4b4b4b" font-size="10pt" font-family="noto_regular"  y="17"></text></g></g><g id="876j7bojhc"><g><path d="M 430,775 L 570,635" fill="none" stroke="#000000" stroke-width="2" stroke-linecap="round" stroke-linejoin="round"/></g></g><g id="2d1y85pcwn"><g transform="translate(560 660)"><ellipse cx="65.4999771118164" cy="30.5" rx="65.4999771118164" ry="30.5" fill="rgba(255,255,255,1)" stroke="#000000" stroke-width="2" stroke-linecap="round" stroke-linejoin="round"/></g><g transform="translate(573.9999771118164, 681) rotate(0, 51.5, 9.5)" width="103" height="19"><text text-decoration="none" x="5" fill="rgb(0, 0, 0)" font-weight="bold" font-size="12pt" font-family="Arial"  y="17">fulfillOrder&#160;</text><text text-decoration="none" x="98" fill="#4b4b4b" font-size="10pt" font-family="noto_regular"  y="17"></text></g></g><g id="121mnl9vd7"><g transform="translate(865 650)"><ellipse cx="20.5" cy="10.125" rx="10.25" ry="10.125" fill="rgba(0,91,126,1)" stroke="#005b7e" stroke-width="1.5" stroke-linecap="round" stroke-linejoin="round"/><path d="M 20.5,20.25 L 20.5,48.6 L 41,81 M 20.5,48.6 L 0,81 M 2.0500000000000003,30.375 L 38.95,30.375" fill="none" stroke="#005b7e" stroke-width="1.5" stroke-linecap="round" stroke-linejoin="round"/><rect x="0" y="0" width="41" height="81" fill="rgba(255,255,255,0.01)" stroke="rgba(255,255,255,0.01)" stroke-width="1.5" stroke-linecap="round" stroke-linejoin="round"/></g><g transform="translate(856.5, 736) rotate(0, 29, 0)" width="58" height="49"><text text-decoration="none" x="10.5" fill="rgb(0, 0, 0)" font-size="9pt" font-family="Arial"  y="13">Coffee&#160;</text><text text-decoration="none" x="15.5" fill="rgb(0, 0, 0)" font-size="9pt" font-family="Arial"  y="31">shop&#160;</text><text text-decoration="none" x="1.5" fill="rgb(0, 0, 0)" font-size="9pt" font-family="Arial"  y="53">employee</text><text text-decoration="none" x="56.5" fill="#4b4b4b" font-size="10pt" font-family="noto_regular"  y="53"></text></g></g><g id="49cr90l3x5"><g transform="translate(570 730)"><ellipse cx="65.4999771118164" cy="30.5" rx="65.4999771118164" ry="30.5" fill="rgba(255,255,255,1)" stroke="#000000" stroke-width="2" stroke-linecap="round" stroke-linejoin="round"/></g><g transform="translate(583.9999771118164, 751) rotate(0, 51.5, 9.5)" width="103" height="19"><text text-decoration="none" x="5.5" fill="rgb(0, 0, 0)" font-weight="bold" font-size="12pt" font-family="Arial"  y="17">outOfItems</text><text text-decoration="none" x="97.5" fill="#4b4b4b" font-size="10pt" font-family="noto_regular"  y="17"></text></g></g><g id="43swsx1km5"><g><path d="M 865,680 L 700,760" fill="none" stroke="#000000" stroke-width="2" stroke-linecap="round" stroke-linejoin="round"/></g></g><g id="23gabg46g0"><g transform="translate(860 835)"><ellipse cx="20.5" cy="10.125" rx="10.25" ry="10.125" fill="rgba(0,91,126,1)" stroke="#005b7e" stroke-width="1.5" stroke-linecap="round" stroke-linejoin="round"/><path d="M 20.5,20.25 L 20.5,48.6 L 41,81 M 20.5,48.6 L 0,81 M 2.0500000000000003,30.375 L 38.95,30.375" fill="none" stroke="#005b7e" stroke-width="1.5" stroke-linecap="round" stroke-linejoin="round"/><rect x="0" y="0" width="41" height="81" fill="rgba(255,255,255,0.01)" stroke="rgba(255,255,255,0.01)" stroke-width="1.5" stroke-linecap="round" stroke-linejoin="round"/></g><g transform="translate(859, 921) rotate(0, 21.5, 0)" width="43" height="49"><text text-decoration="none" x="11.5" fill="rgb(0, 0, 0)" font-size="9pt" font-family="Arial"  y="13">Gift&#160;</text><text text-decoration="none" x="9" fill="rgb(0, 0, 0)" font-size="9pt" font-family="Arial"  y="31">card&#160;</text><text text-decoration="none" x="1.5" fill="rgb(0, 0, 0)" font-size="9pt" font-family="Arial"  y="53">system</text><text text-decoration="none" x="41.5" fill="#4b4b4b" font-size="10pt" font-family="noto_regular"  y="53"></text></g></g><g id="8u5t98jy2s"><g transform="translate(570 805)"><ellipse cx="65.4999771118164" cy="30.5" rx="65.4999771118164" ry="30.5" fill="rgba(255,255,255,1)" stroke="#000000" stroke-width="2" stroke-linecap="round" stroke-linejoin="round"/></g><g transform="translate(577.9999771118164, 826) rotate(0, 57.5, 9.5)" width="115" height="19"><text text-decoration="none" x="6" fill="rgb(0, 0, 0)" font-weight="bold" font-size="12pt" font-family="Arial"  y="17">updateOrder</text><text text-decoration="none" x="109" fill="#4b4b4b" font-size="10pt" font-family="noto_regular"  y="17"></text></g></g><g id="2ku5juzcyg"><g><path d="M 860,865 L 700,835" fill="none" stroke="#000000" stroke-width="2" stroke-linecap="round" stroke-linejoin="round"/></g></g><g id="4amf3cy7kt"><g transform="translate(390 735)"><path d="M 9.014000000000001,10.58 C 9.013999898970633,18.33958761790857 18.956499835827277,23.18932997366301 26.91049988634196,19.309536238628727 C 30.60196423780382,17.508917660184366 32.87600004688789,14.181237225501507 32.876,10.58 C 32.87600010102937,2.8204123820914297 22.933500164172727,-2.0293299736630095 14.979500113658045,1.850463761371273 C 11.288035762196184,3.6510823398156336 9.013999953112107,6.9787627744984935 9.014000000000001,10.58" fill="rgb(0, 91, 126)" stroke="rgb(0, 91, 126)" stroke-width="1.5" vector-effect="non-scaling-stroke"/><path d="M 40.396,80.458 L 20.818,54.099" fill="rgb(0, 91, 126)" stroke="rgb(0, 91, 126)" stroke-width="1.5" vector-effect="non-scaling-stroke"/><path d="M 20.818,54.099 L 0.396,80.5" fill="rgb(0, 91, 126)" stroke="rgb(0, 91, 126)" stroke-width="1.5" vector-effect="non-scaling-stroke"/><path d="M 20.945,54.341 L 20.945,20.066" fill="rgb(0, 91, 126)" stroke="rgb(0, 91, 126)" stroke-width="1.5" vector-effect="non-scaling-stroke"/><path d="M 2.156,29.552 L 39.19,29.552" fill="rgb(0, 91, 126)" stroke="rgb(0, 91, 126)" stroke-width="1.5" vector-effect="non-scaling-stroke"/></g><g transform="translate(384, 825.8000000000001) rotate(0, 0, 0)" width="62" height="19"><text text-decoration="none" x="0" fill="#000000" font-size="9pt" font-family="Arial"  y="17">Customer&#160;</text><text text-decoration="none" x="58" fill="#4b4b4b" font-size="10pt" font-family="noto_regular"  y="17"></text></g></g><g id="sd3edi1y1p"><g transform="translate(590 885)"><ellipse cx="45.5" cy="30.5" rx="45.5" ry="30.5" fill="rgba(255,255,255,1)" stroke="#000000" stroke-width="2" stroke-linecap="round" stroke-linejoin="round"/></g><g transform="translate(599.5, 906) rotate(0, 36, 9.5)" width="72" height="19"><text text-decoration="none" x="5.5" fill="rgb(0, 0, 0)" font-weight="bold" font-size="12pt" font-family="Arial"  y="17">register</text><text text-decoration="none" x="66.5" fill="#4b4b4b" font-size="10pt" font-family="noto_regular"  y="17"></text></g></g><g id="1orshfu0y1"><g transform="translate(570 965)"><ellipse cx="65.00000154972076" cy="30.5" rx="65.00000154972076" ry="30.5" fill="rgba(255,255,255,1)" stroke="#000000" stroke-width="2" stroke-linecap="round" stroke-linejoin="round"/></g><g transform="translate(569.0000015497208, 986) rotate(0, 66, 9.5)" width="132" height="19"><text text-decoration="none" x="5" fill="rgb(0, 0, 0)" font-weight="bold" font-size="12pt" font-family="Arial"  y="17">modifyAccount</text><text text-decoration="none" x="127" fill="#4b4b4b" font-size="10pt" font-family="noto_regular"  y="17"></text></g></g><g id="21bih8ipkb"><g><path d="M 750,647 L 750,647" fill="none" stroke="#a0a0a0" stroke-width="1.5" stroke-linecap="round" stroke-linejoin="round"/></g></g><g id="9xiezguftu"><g><path d="M 434,783 L 570,835" fill="none" stroke="#000000" stroke-width="2" stroke-linecap="round" stroke-linejoin="round"/></g></g><g id="1ne6i0xa4n"><g><path d="M 433,792 L 590,910" fill="none" stroke="#000000" stroke-width="2" stroke-linecap="round" stroke-linejoin="round"/></g></g><g id="uk95kdsuoz"><g><path d="M 680,911 L 850,880" fill="none" stroke="#000000" stroke-width="2" stroke-linecap="round" stroke-linejoin="round"/></g></g><g id="2vu2vbhxvu"><g><path d="M 698.95,991 L 698.95,991" fill="none" stroke="#a0a0a0" stroke-width="1.5" stroke-linecap="round" stroke-linejoin="round"/></g></g><g id="2bz9dx4f3x"><g><path d="M 698.95,996 L 850,895" fill="none" stroke="#000000" stroke-width="2" stroke-linecap="round" stroke-linejoin="round"/></g></g><g id="wno1hfb6vy"><g><path d="M 434,806 L 575,985" fill="none" stroke="#000000" stroke-width="2" stroke-linecap="round" stroke-linejoin="round"/></g></g><g id="258jryc4w3"><g><path d="M 688,684 L 850,675" fill="none" stroke="#000000" stroke-width="2" stroke-linecap="round" stroke-linejoin="round"/></g></g><g id="24kofvqp7r"><g><path d="M 689,622 L 850,840" fill="none" stroke="#000000" stroke-width="2" stroke-linecap="round" stroke-linejoin="round"/></g></g><g id="8bnkj93fjz"><g><path d="M 696.95,825 L 825,730" fill="none" stroke="#000000" stroke-width="2" stroke-linecap="round" stroke-linejoin="round"/></g></g><g id="2f24t80faf"><g><path d="M 684.95,613.95 L 845,660" fill="none" stroke="#000000" stroke-width="2" stroke-linecap="round" stroke-linejoin="round"/></g></g><g id="1lp10ggknj"><g><path d="M 437,772 L 565,695" fill="none" stroke="#000000" stroke-width="2" stroke-linecap="round" stroke-linejoin="round"/></g></g><g id="1xy4bhh7mh"><g><path d="M 573.95,764 L 450,775" fill="none" stroke="#000000" stroke-width="2" stroke-linecap="round" stroke-linejoin="round"/></g></g></svg>